<mxfile host="Electron" agent="Mozilla/5.0 (Windows NT 10.0; Win64; x64) AppleWebKit/537.36 (KHTML, like Gecko) draw.io/28.0.6 Chrome/138.0.7204.100 Electron/37.2.3 Safari/537.36" version="28.0.6">
  <diagram name="Page-1" id="TfAT_5znVYfnCg4MHmjD">
    <mxGraphModel dx="1723" dy="527" grid="1" gridSize="10" guides="1" tooltips="1" connect="1" arrows="1" fold="1" page="1" pageScale="1" pageWidth="850" pageHeight="1100" math="0" shadow="0">
      <root>
        <mxCell id="0" />
        <mxCell id="1" parent="0" />
        <mxCell id="Azseq3ZGcXgARyp1cpDW-44" value="" style="ellipse;shape=cloud;whiteSpace=wrap;html=1;" vertex="1" parent="1">
          <mxGeometry x="-42" y="207" width="720" height="390" as="geometry" />
        </mxCell>
        <mxCell id="Azseq3ZGcXgARyp1cpDW-3" value="Roles &amp; Permissions" style="shape=ellipse;fillColor=#A56EFF;aspect=fixed;resizable=0;labelPosition=center;verticalLabelPosition=bottom;align=center;verticalAlign=top;strokeColor=none;fontSize=14;" vertex="1" parent="1">
          <mxGeometry x="228" y="317" width="48" height="48" as="geometry" />
        </mxCell>
        <mxCell id="Azseq3ZGcXgARyp1cpDW-4" value="" style="fillColor=#ffffff;strokeColor=none;dashed=0;outlineConnect=0;html=1;labelPosition=center;verticalLabelPosition=bottom;verticalAlign=top;part=1;movable=0;resizable=0;rotatable=0;shape=mxgraph.ibm_cloud.microservices--1" vertex="1" parent="Azseq3ZGcXgARyp1cpDW-3">
          <mxGeometry width="24" height="24" relative="1" as="geometry">
            <mxPoint x="12" y="12" as="offset" />
          </mxGeometry>
        </mxCell>
        <mxCell id="Azseq3ZGcXgARyp1cpDW-13" value="User Management" style="shape=ellipse;fillColor=#A56EFF;aspect=fixed;resizable=0;labelPosition=center;verticalLabelPosition=bottom;align=center;verticalAlign=top;strokeColor=none;fontSize=14;" vertex="1" parent="1">
          <mxGeometry x="68" y="317" width="48" height="48" as="geometry" />
        </mxCell>
        <mxCell id="Azseq3ZGcXgARyp1cpDW-14" value="" style="fillColor=#ffffff;strokeColor=none;dashed=0;outlineConnect=0;html=1;labelPosition=center;verticalLabelPosition=bottom;verticalAlign=top;part=1;movable=0;resizable=0;rotatable=0;shape=mxgraph.ibm_cloud.microservices--1" vertex="1" parent="Azseq3ZGcXgARyp1cpDW-13">
          <mxGeometry width="24" height="24" relative="1" as="geometry">
            <mxPoint x="12" y="12" as="offset" />
          </mxGeometry>
        </mxCell>
        <mxCell id="Azseq3ZGcXgARyp1cpDW-18" value="Seller Service" style="shape=ellipse;fillColor=#A56EFF;aspect=fixed;resizable=0;labelPosition=center;verticalLabelPosition=bottom;align=center;verticalAlign=top;strokeColor=none;fontSize=14;" vertex="1" parent="1">
          <mxGeometry x="368" y="317" width="48" height="48" as="geometry" />
        </mxCell>
        <mxCell id="Azseq3ZGcXgARyp1cpDW-19" value="" style="fillColor=#ffffff;strokeColor=none;dashed=0;outlineConnect=0;html=1;labelPosition=center;verticalLabelPosition=bottom;verticalAlign=top;part=1;movable=0;resizable=0;rotatable=0;shape=mxgraph.ibm_cloud.microservices--1" vertex="1" parent="Azseq3ZGcXgARyp1cpDW-18">
          <mxGeometry width="24" height="24" relative="1" as="geometry">
            <mxPoint x="12" y="12" as="offset" />
          </mxGeometry>
        </mxCell>
        <mxCell id="Azseq3ZGcXgARyp1cpDW-20" value="User Data Service" style="shape=ellipse;fillColor=#A56EFF;aspect=fixed;resizable=0;labelPosition=center;verticalLabelPosition=bottom;align=center;verticalAlign=top;strokeColor=none;fontSize=14;" vertex="1" parent="1">
          <mxGeometry x="508" y="317" width="48" height="48" as="geometry" />
        </mxCell>
        <mxCell id="Azseq3ZGcXgARyp1cpDW-21" value="" style="fillColor=#ffffff;strokeColor=none;dashed=0;outlineConnect=0;html=1;labelPosition=center;verticalLabelPosition=bottom;verticalAlign=top;part=1;movable=0;resizable=0;rotatable=0;shape=mxgraph.ibm_cloud.microservices--1" vertex="1" parent="Azseq3ZGcXgARyp1cpDW-20">
          <mxGeometry width="24" height="24" relative="1" as="geometry">
            <mxPoint x="12" y="12" as="offset" />
          </mxGeometry>
        </mxCell>
        <mxCell id="Azseq3ZGcXgARyp1cpDW-22" value="UI" style="shadow=0;dashed=0;html=1;strokeColor=none;fillColor=#4495D1;labelPosition=center;verticalLabelPosition=bottom;verticalAlign=top;align=center;outlineConnect=0;shape=mxgraph.veeam.2d.web_ui;" vertex="1" parent="1">
          <mxGeometry x="285.6" y="20" width="44.8" height="44.8" as="geometry" />
        </mxCell>
        <mxCell id="Azseq3ZGcXgARyp1cpDW-25" value="" style="endArrow=classic;html=1;rounded=0;entryX=0.5;entryY=0;entryDx=0;entryDy=0;" edge="1" parent="1" target="Azseq3ZGcXgARyp1cpDW-20">
          <mxGeometry width="50" height="50" relative="1" as="geometry">
            <mxPoint x="332.79999999999995" y="169.3595667870036" as="sourcePoint" />
            <mxPoint x="458" y="367" as="targetPoint" />
            <Array as="points">
              <mxPoint x="532" y="169" />
            </Array>
          </mxGeometry>
        </mxCell>
        <mxCell id="Azseq3ZGcXgARyp1cpDW-26" value="" style="endArrow=classic;html=1;rounded=0;exitX=0;exitY=0.446;exitDx=0;exitDy=0;exitPerimeter=0;entryX=0.5;entryY=0;entryDx=0;entryDy=0;" edge="1" parent="1" target="Azseq3ZGcXgARyp1cpDW-13">
          <mxGeometry width="50" height="50" relative="1" as="geometry">
            <mxPoint x="288" y="166.98080000000004" as="sourcePoint" />
            <mxPoint x="168.87" y="392.2" as="targetPoint" />
            <Array as="points">
              <mxPoint x="92" y="167" />
            </Array>
          </mxGeometry>
        </mxCell>
        <mxCell id="Azseq3ZGcXgARyp1cpDW-27" value="" style="endArrow=classic;html=1;rounded=0;entryX=0.5;entryY=0;entryDx=0;entryDy=0;exitX=0;exitY=0.67;exitDx=0;exitDy=0;exitPerimeter=0;" edge="1" parent="1" target="Azseq3ZGcXgARyp1cpDW-3">
          <mxGeometry width="50" height="50" relative="1" as="geometry">
            <mxPoint x="288" y="177.01599999999996" as="sourcePoint" />
            <mxPoint x="458" y="367" as="targetPoint" />
            <Array as="points">
              <mxPoint x="252" y="177" />
            </Array>
          </mxGeometry>
        </mxCell>
        <mxCell id="Azseq3ZGcXgARyp1cpDW-28" value="" style="endArrow=classic;html=1;rounded=0;entryX=0.5;entryY=0;entryDx=0;entryDy=0;exitX=0.893;exitY=0.67;exitDx=0;exitDy=0;exitPerimeter=0;" edge="1" parent="1" target="Azseq3ZGcXgARyp1cpDW-18">
          <mxGeometry width="50" height="50" relative="1" as="geometry">
            <mxPoint x="328.0064" y="177.01599999999996" as="sourcePoint" />
            <mxPoint x="458" y="367" as="targetPoint" />
            <Array as="points">
              <mxPoint x="392" y="177" />
            </Array>
          </mxGeometry>
        </mxCell>
        <mxCell id="Azseq3ZGcXgARyp1cpDW-29" value="" style="image;aspect=fixed;perimeter=ellipsePerimeter;html=1;align=center;shadow=0;dashed=0;spacingTop=3;image=img/lib/active_directory/database.svg;" vertex="1" parent="1">
          <mxGeometry x="68" y="437" width="50" height="37" as="geometry" />
        </mxCell>
        <mxCell id="Azseq3ZGcXgARyp1cpDW-30" value="" style="image;aspect=fixed;perimeter=ellipsePerimeter;html=1;align=center;shadow=0;dashed=0;spacingTop=3;image=img/lib/active_directory/database.svg;" vertex="1" parent="1">
          <mxGeometry x="228" y="437" width="50" height="37" as="geometry" />
        </mxCell>
        <mxCell id="Azseq3ZGcXgARyp1cpDW-31" value="" style="image;aspect=fixed;perimeter=ellipsePerimeter;html=1;align=center;shadow=0;dashed=0;spacingTop=3;image=img/lib/active_directory/database.svg;" vertex="1" parent="1">
          <mxGeometry x="366" y="437" width="50" height="37" as="geometry" />
        </mxCell>
        <mxCell id="Azseq3ZGcXgARyp1cpDW-38" value="" style="edgeStyle=orthogonalEdgeStyle;rounded=0;orthogonalLoop=1;jettySize=auto;html=1;" edge="1" parent="1" source="Azseq3ZGcXgARyp1cpDW-32" target="Azseq3ZGcXgARyp1cpDW-21">
          <mxGeometry relative="1" as="geometry" />
        </mxCell>
        <mxCell id="Azseq3ZGcXgARyp1cpDW-32" value="" style="image;aspect=fixed;perimeter=ellipsePerimeter;html=1;align=center;shadow=0;dashed=0;spacingTop=3;image=img/lib/active_directory/database.svg;" vertex="1" parent="1">
          <mxGeometry x="506" y="437" width="50" height="37" as="geometry" />
        </mxCell>
        <mxCell id="Azseq3ZGcXgARyp1cpDW-33" value="" style="endArrow=classic;startArrow=classic;html=1;rounded=0;entryX=0.5;entryY=1;entryDx=0;entryDy=0;exitX=0.5;exitY=0;exitDx=0;exitDy=0;" edge="1" parent="1" source="Azseq3ZGcXgARyp1cpDW-31" target="Azseq3ZGcXgARyp1cpDW-18">
          <mxGeometry width="50" height="50" relative="1" as="geometry">
            <mxPoint x="408" y="417" as="sourcePoint" />
            <mxPoint x="458" y="367" as="targetPoint" />
          </mxGeometry>
        </mxCell>
        <mxCell id="Azseq3ZGcXgARyp1cpDW-35" value="" style="endArrow=classic;startArrow=classic;html=1;rounded=0;entryX=0.5;entryY=1;entryDx=0;entryDy=0;exitX=0.5;exitY=0;exitDx=0;exitDy=0;" edge="1" parent="1">
          <mxGeometry width="50" height="50" relative="1" as="geometry">
            <mxPoint x="530" y="438" as="sourcePoint" />
            <mxPoint x="531" y="366" as="targetPoint" />
          </mxGeometry>
        </mxCell>
        <mxCell id="Azseq3ZGcXgARyp1cpDW-36" value="" style="endArrow=classic;startArrow=classic;html=1;rounded=0;entryX=0.5;entryY=1;entryDx=0;entryDy=0;exitX=0.5;exitY=0;exitDx=0;exitDy=0;" edge="1" parent="1">
          <mxGeometry width="50" height="50" relative="1" as="geometry">
            <mxPoint x="90" y="437" as="sourcePoint" />
            <mxPoint x="91" y="365" as="targetPoint" />
          </mxGeometry>
        </mxCell>
        <mxCell id="Azseq3ZGcXgARyp1cpDW-37" value="" style="endArrow=classic;startArrow=classic;html=1;rounded=0;entryX=0.5;entryY=1;entryDx=0;entryDy=0;exitX=0.5;exitY=0;exitDx=0;exitDy=0;" edge="1" parent="1">
          <mxGeometry width="50" height="50" relative="1" as="geometry">
            <mxPoint x="251" y="438" as="sourcePoint" />
            <mxPoint x="252" y="366" as="targetPoint" />
          </mxGeometry>
        </mxCell>
        <mxCell id="Azseq3ZGcXgARyp1cpDW-41" value="" style="endArrow=classic;startArrow=classic;html=1;rounded=0;exitX=1;exitY=0.5;exitDx=0;exitDy=0;entryX=0;entryY=0.5;entryDx=0;entryDy=0;" edge="1" parent="1" source="Azseq3ZGcXgARyp1cpDW-18" target="Azseq3ZGcXgARyp1cpDW-20">
          <mxGeometry width="50" height="50" relative="1" as="geometry">
            <mxPoint x="408" y="417" as="sourcePoint" />
            <mxPoint x="458" y="367" as="targetPoint" />
          </mxGeometry>
        </mxCell>
        <mxCell id="Azseq3ZGcXgARyp1cpDW-42" value="" style="endArrow=classic;html=1;rounded=0;" edge="1" parent="1">
          <mxGeometry width="50" height="50" relative="1" as="geometry">
            <mxPoint x="118" y="337" as="sourcePoint" />
            <mxPoint x="228" y="337" as="targetPoint" />
          </mxGeometry>
        </mxCell>
        <mxCell id="Azseq3ZGcXgARyp1cpDW-46" value="" style="image;aspect=fixed;html=1;points=[];align=center;fontSize=12;image=img/lib/azure2/networking/Application_Gateways.svg;" vertex="1" parent="1">
          <mxGeometry x="276" y="130" width="64" height="64" as="geometry" />
        </mxCell>
        <mxCell id="Azseq3ZGcXgARyp1cpDW-49" value="" style="endArrow=none;html=1;rounded=0;" edge="1" parent="1" source="Azseq3ZGcXgARyp1cpDW-46" target="Azseq3ZGcXgARyp1cpDW-22">
          <mxGeometry width="50" height="50" relative="1" as="geometry">
            <mxPoint x="370" y="300" as="sourcePoint" />
            <mxPoint x="420" y="250" as="targetPoint" />
          </mxGeometry>
        </mxCell>
      </root>
    </mxGraphModel>
  </diagram>
</mxfile>
